<?xml version="1.0" standalone="no"?>
<!DOCTYPE svg PUBLIC "-//W3C//DTD SVG 20010904//EN"
 "http://www.w3.org/TR/2001/REC-SVG-20010904/DTD/svg10.dtd">
<svg version="1.0" xmlns="http://www.w3.org/2000/svg"
 width="1024.000000pt" height="1024.000000pt" viewBox="0 0 1024.000000 1024.000000"
 preserveAspectRatio="xMidYMid meet">

<g transform="translate(0.000000,1024.000000) scale(0.100000,-0.100000)"
fill="#000000" stroke="none">
<path d="M3735 8423 c-48 -7 -126 -32 -152 -48 -53 -35 -13 -174 90 -311 192
-253 532 -428 876 -450 189 -12 258 63 192 210 -29 66 -118 198 -181 268 -208
232 -549 369 -825 331z"/>
<path d="M5348 8370 c-73 -22 -219 -164 -312 -305 -61 -92 -125 -215 -162
-312 -29 -78 -84 -286 -84 -319 0 -13 -4 -25 -10 -29 -5 -3 -55 10 -111 30
-212 74 -335 96 -534 96 -202 1 -331 -29 -505 -116 -242 -122 -452 -341 -584
-610 -123 -249 -187 -568 -172 -850 29 -528 212 -1044 513 -1447 111 -150 344
-378 469 -461 189 -125 322 -170 504 -171 103 0 133 4 289 43 171 43 177 44
288 37 132 -7 160 2 187 59 22 46 14 87 -25 119 -40 34 -78 39 -237 33 -110
-4 -160 -12 -252 -37 -151 -41 -244 -48 -342 -26 -160 36 -321 137 -493 310
-310 312 -540 746 -629 1188 -84 414 -50 765 104 1086 77 159 141 251 250 356
210 202 403 274 686 255 178 -12 335 -53 584 -151 69 -27 146 -52 171 -55 51
-6 61 -2 224 90 115 64 223 109 333 139 110 29 327 36 447 14 161 -30 308 -86
401 -154 l42 -30 -51 -54 c-219 -234 -267 -516 -131 -786 36 -72 66 -113 138
-189 143 -152 238 -215 299 -199 40 10 77 54 77 94 0 31 -12 46 -113 146 -160
157 -204 226 -232 361 -36 175 22 328 189 495 41 41 83 92 92 113 17 38 17 40
-1 75 -25 46 -182 154 -319 221 -394 191 -807 198 -1160 20 -45 -23 -94 -50
-109 -61 -16 -11 -30 -18 -33 -15 -15 15 61 249 116 358 43 84 133 215 224
324 119 142 126 153 126 195 0 82 -76 142 -152 120z"/>
<path d="M5423 5123 c59 -2 155 -2 215 0 59 1 10 3 -108 3 -118 0 -167 -2
-107 -3z"/>
<path d="M5264 4975 c0 -55 1 -76 3 -47 2 29 2 74 0 100 -2 26 -3 2 -3 -53z"/>
<path d="M5264 4625 c0 -55 1 -76 3 -47 2 29 2 74 0 100 -2 26 -3 2 -3 -53z"/>
<path d="M5264 4290 c0 -118 2 -167 3 -107 2 59 2 155 0 215 -1 59 -3 10 -3
-108z"/>
<path d="M6583 2903 c-31 -6 -83 -69 -83 -99 0 -132 205 -154 226 -23 13 81
-56 141 -143 122z"/>
<path d="M2220 2783 l0 -88 137 2 138 2 5 -405 5 -404 98 -3 97 -3 0 408 0
408 140 0 140 0 0 85 0 85 -380 0 -380 0 0 -87z"/>
<path d="M4950 2378 l0 -493 96 2 96 1 2 112 c3 110 4 112 33 142 l31 31 31
-44 c16 -24 63 -89 103 -144 l72 -100 101 3 c55 1 106 4 114 5 9 1 -5 27 -40
72 -150 195 -249 331 -249 343 0 7 37 57 83 110 46 53 98 116 116 140 l33 42
-105 0 -105 0 -84 -106 c-46 -59 -94 -120 -108 -136 l-25 -29 -2 268 -2 268
-96 3 -95 3 0 -493z"/>
<path d="M5702 2380 l3 -491 195 -3 c273 -4 370 13 438 77 76 71 104 207 62
305 -24 56 -75 108 -115 118 -33 8 -31 16 5 38 17 9 44 41 60 69 59 103 31
259 -58 320 -70 48 -85 51 -345 55 l-247 4 2 -492z m389 330 c69 -13 99 -43
106 -103 5 -41 2 -49 -24 -76 -39 -38 -88 -51 -200 -51 l-93 0 0 113 c0 63 3
117 7 120 10 11 144 8 204 -3z m64 -406 c70 -36 96 -125 55 -191 -33 -54 -70
-67 -207 -71 l-123 -4 0 147 0 147 118 -4 c93 -3 126 -8 157 -24z"/>
<path d="M7055 2764 c-11 -3 -39 -10 -62 -16 l-43 -11 0 -68 0 -68 -67 -3
c-38 -2 -67 -6 -65 -10 1 -5 2 -41 2 -80 l0 -73 63 0 62 0 5 -232 c5 -214 7
-234 26 -259 44 -59 68 -69 167 -69 62 0 102 5 122 15 29 15 30 18 33 88 l3
72 -43 -7 c-65 -11 -100 -8 -115 13 -10 13 -13 63 -13 196 l0 178 80 0 80 0 0
85 0 85 -80 0 -80 0 0 85 0 85 -27 -1 c-16 -1 -37 -3 -48 -5z"/>
<path d="M3224 2596 c-17 -8 -43 -29 -57 -47 l-27 -34 0 43 0 42 -90 0 -90 0
0 -354 0 -355 91 -3 c50 -2 93 -1 95 1 2 2 4 103 4 223 0 237 4 259 55 292 15
10 54 20 88 24 l62 7 0 85 0 85 -50 2 c-27 2 -64 -3 -81 -11z"/>
<path d="M3649 2597 c-64 -24 -109 -58 -134 -101 -38 -65 -34 -82 23 -94 115
-25 122 -25 122 -7 0 9 13 30 29 46 24 23 38 29 75 29 24 0 56 -4 71 -10 29
-11 55 -62 55 -108 l0 -29 -112 -5 c-142 -7 -215 -32 -274 -93 -82 -84 -78
-213 8 -296 43 -40 98 -59 179 -59 80 0 125 13 172 50 l27 21 0 -25 c0 -26 0
-26 85 -26 l85 0 0 245 c0 136 -5 266 -11 294 -14 67 -44 109 -103 146 -45 28
-57 30 -155 32 -70 2 -118 -1 -142 -10z m228 -407 c13 0 15 -9 10 -51 -8 -63
-25 -91 -70 -113 -115 -54 -238 44 -163 130 20 25 33 29 102 34 44 4 85 5 92
3 8 -1 21 -3 29 -3z"/>
<path d="M4413 2600 c-83 -20 -177 -103 -219 -194 -45 -98 -41 -253 8 -349 31
-61 95 -124 157 -154 48 -24 71 -28 161 -31 130 -5 200 17 265 83 44 43 85
129 69 145 -5 4 -43 11 -84 14 l-75 7 -20 -33 c-41 -67 -134 -87 -215 -45 -78
39 -116 123 -107 234 5 69 36 135 79 166 34 25 126 34 168 17 37 -15 80 -64
80 -91 0 -10 3 -19 8 -19 16 0 166 31 170 35 3 3 0 24 -7 47 -18 61 -100 138
-170 161 -56 18 -206 22 -268 7z"/>
<path d="M7547 2591 c-156 -63 -245 -250 -207 -436 37 -182 162 -285 345 -285
94 0 148 13 200 48 53 37 105 114 105 158 l0 34 -71 0 c-71 0 -71 0 -108 -41
-32 -36 -43 -42 -88 -46 -66 -7 -115 10 -152 52 -27 31 -51 88 -51 123 0 9 55
12 241 12 l242 0 -5 90 c-8 137 -61 230 -162 282 -59 32 -221 36 -289 9z m219
-146 c14 -9 32 -32 40 -50 27 -66 30 -65 -136 -65 l-150 0 6 28 c9 38 18 53
48 81 44 42 134 45 192 6z"/>
<path d="M6540 2243 l0 -358 95 3 95 3 0 355 -1 354 -94 0 -95 0 0 -357z"/>
</g>
</svg>
